<?xml version="1.0" encoding="UTF-8"?>
<svg id="Layer_2" data-name="Layer 2" xmlns="http://www.w3.org/2000/svg" viewBox="0 0 1347.16 451.31">
  <g id="Layer_7" data-name="Layer 7">
    <g>
      <g>
        <polygon class="cls-1" points="300.88 376.09 275.8 401.17 250.73 426.24 225.66 451.31 200.59 426.24 175.51 401.17 150.44 376.09 175.51 351.02 200.59 376.09 225.66 401.17 250.73 376.09 275.8 351.02 300.88 376.09"/>
        <polygon class="cls-1" points="451.31 225.66 426.24 250.73 401.17 275.8 376.09 300.87 351.02 325.95 325.95 351.02 300.87 325.95 275.8 300.87 250.73 275.8 275.8 250.73 300.87 275.8 325.95 300.87 401.17 225.66 376.09 200.59 351.02 175.51 325.95 150.44 300.87 175.51 275.8 200.59 250.73 225.66 225.66 250.73 200.59 275.8 175.51 300.87 150.44 325.95 125.36 351.02 100.29 325.95 75.22 300.88 25.08 250.73 0 225.66 25.08 200.59 50.15 175.51 75.22 150.44 100.29 125.36 125.36 100.29 150.44 125.36 175.51 150.44 200.59 175.51 175.51 200.59 150.44 175.51 125.36 150.44 100.29 175.51 75.22 200.59 50.15 225.66 75.22 250.73 100.29 275.8 125.36 300.87 150.44 275.8 175.51 250.73 200.59 225.66 225.66 200.59 250.73 175.51 275.8 150.44 300.87 125.36 325.95 100.29 351.02 125.36 376.09 150.44 401.17 175.51 451.31 225.66"/>
        <polygon class="cls-1" points="300.88 75.22 275.8 100.29 250.73 75.22 250.73 75.22 225.66 50.15 200.59 75.22 175.51 100.29 150.44 75.22 175.51 50.15 200.59 25.07 225.66 0 250.73 25.08 275.8 50.15 300.87 75.22 300.88 75.22"/>
      </g>
      <g>
        <path class="cls-1" d="M568.41,276.41h-8.75v-70h-35v-17.5h87.5v17.5h-35v70h-8.75Z"/>
        <path class="cls-1" d="M620.91,206.41v-17.5h87.5v17.5h-87.5ZM620.91,276.41v-52.5h87.5v17.5h-70v17.5h70v17.5h-87.5Z"/>
        <path class="cls-1" d="M725.91,276.41h-8.75v-87.5h70v17.5h-52.5v70h-8.75Z"/>
        <path class="cls-1" d="M804.66,276.41h-8.75v-87.5h70v17.5h-52.5v70h-8.75Z"/>
        <path class="cls-1" d="M927.16,276.41h-8.75v-35h-43.75v-52.5h17.5v35h26.25v-35h17.5v35h26.25v17.5h-26.25v35h-8.75Z"/>
        <path class="cls-1" d="M970.91,276.41v-35l8.75-8.75-8.75-8.75v-35h87.5v35l-8.75,8.75,8.75,8.75v35h-87.5ZM1040.91,223.91v-17.5h-52.5v17.5h52.5ZM1040.91,241.41h-52.5v17.5h52.5v-17.5Z"/>
        <path class="cls-1" d="M1137.16,223.91v-35h17.5v35l-17.5,17.5h-17.5v35h-17.5v-35h-17.5l-17.5-17.5v-35h17.5v35h52.5Z"/>
        <path class="cls-1" d="M1207.16,276.41h-8.75v-70h-35v-17.5h87.5v17.5h-35v70h-8.75Z"/>
        <path class="cls-1" d="M1259.66,206.41v-17.5h87.5v17.5h-87.5ZM1259.66,276.41v-52.5h87.5v17.5h-70v17.5h70v17.5h-87.5Z"/>
      </g>
    </g>
  </g>
</svg>