<?xml version="1.0" encoding="UTF-8"?>
<svg id="Layer_2" data-name="Layer 2" xmlns="http://www.w3.org/2000/svg" viewBox="0 0 1309.5 1309.5">
  <g id="Layer_5_copy" data-name="Layer 5 copy">
    <g>
      <polygon class="cls-1" points="873.01 1091.25 800.25 1164 727.51 1236.76 654.75 1309.5 582.01 1236.76 509.25 1164 436.5 1091.25 509.25 1018.5 582.01 1091.25 654.75 1164 727.51 1091.25 800.25 1018.5 873.01 1091.25"/>
      <polygon class="cls-1" points="1309.5 654.75 1236.76 727.49 1164 800.25 1091.25 873 1018.5 945.75 945.75 1018.5 873 945.75 800.25 873 727.49 800.25 800.25 727.49 873 800.25 945.75 873 1164 654.75 1091.25 582.01 1018.5 509.25 945.75 436.5 873 509.25 800.25 582.01 727.49 654.75 654.75 727.49 582.01 800.25 509.25 873 436.5 945.75 363.75 1018.5 291 945.75 218.26 873.01 72.76 727.51 0 654.75 72.76 582.01 145.5 509.25 218.26 436.5 291 363.75 363.75 291 436.5 363.75 509.25 436.5 582.01 509.25 509.25 582.01 436.5 509.25 363.75 436.5 291 509.25 218.26 582.01 145.5 654.75 218.26 727.51 291 800.25 363.75 873 436.5 800.25 509.25 727.49 582.01 654.75 654.75 582.01 727.49 509.25 800.25 436.5 873 363.75 945.75 291 1018.5 363.75 1091.25 436.5 1164 509.25 1309.5 654.75"/>
      <polygon class="cls-1" points="873.01 218.26 800.25 291 727.51 218.26 727.49 218.25 654.75 145.5 582.01 218.25 509.25 291 436.5 218.25 509.25 145.5 582.01 72.74 654.75 0 727.51 72.76 800.25 145.5 873 218.25 873.01 218.26"/>
    </g>
  </g>
</svg>